<svg xmlns="http://www.w3.org/2000/svg" viewBox="0 0 511 80"><title>logo</title><g id="Layer_2" data-name="Layer 2"><g id="Layer_1-2" data-name="Layer 1"><polygon points="0 10.03 0 70 0.25 70 44.97 36.46 0 10.03" fill="#fff"/><polygon points="46.72 45.21 0.33 80 105.9 80 107 80 107 0 46.72 45.21" fill="#fff"/><polygon points="511 10.03 511 70 510.75 70 466.04 36.46 511 10.03" fill="#fff"/><polygon points="464.28 45.21 510.67 80 405.1 80 404 80 404 0 464.28 45.21" fill="#fff"/><rect x="127" width="55" height="80" fill="#fff"/><polygon points="305 0 214.31 0 259.65 34.01 305 0" fill="#fff"/><polygon points="202 0 202 80 308.67 80 255.33 40 202 0" fill="#fff"/><rect x="329" y="60" width="55" height="20" fill="#fff"/><rect x="329" y="30" width="55" height="20" fill="#fff"/><rect x="329" width="55" height="20" fill="#fff"/></g></g></svg>