<?xml version="1.0" encoding="UTF-8"?>
<svg width="17px" height="78px" viewBox="0 0 17 78" version="1.1" xmlns="http://www.w3.org/2000/svg" xmlns:xlink="http://www.w3.org/1999/xlink">
    <!-- Generator: Sketch 42 (36781) - http://www.bohemiancoding.com/sketch -->
    <title>radio-button</title>
    <desc>Created with Sketch.</desc>
    <defs></defs>
    <g id="Page-1" stroke="none" stroke-width="1" fill="none" fill-rule="evenodd">
        <g id="radio-button">
            <g id="radio-checked-disabled" transform="translate(0.000000, 60.000000)" fill="#9B9B9B">
                <path d="M8.32,0 C9.8400076,0 11.2466602,0.3799962 12.54,1.14 C13.7933396,1.8600036 14.7799964,2.8466604 15.5,4.1 C16.2600038,5.3933398 16.64,6.7999924 16.64,8.32 C16.64,9.8400076 16.2600038,11.2466602 15.5,12.54 C14.7799964,13.7933396 13.7933396,14.7799964 12.54,15.5 C11.2466602,16.2600038 9.8400076,16.64 8.32,16.64 C6.7999924,16.64 5.3933398,16.2600038 4.1,15.5 C2.8466604,14.766663 1.8600036,13.7733396 1.14,12.52 C0.3799962,11.2266602 0,9.8266742 0,8.32 C0,6.8133258 0.3799962,5.4133398 1.14,4.12 C1.873337,2.8666604 2.8666604,1.873337 4.12,1.14 C5.4133398,0.3799962 6.8133258,0 8.32,0 Z M8.32,15 C9.520006,15 10.6399948,14.6933364 11.68,14.08 C12.6933384,13.4933304 13.4933304,12.6933384 14.08,11.68 C14.6933364,10.6399948 15,9.520006 15,8.32 C15,7.119994 14.6933364,6.0000052 14.08,4.96 C13.4933304,3.9466616 12.6933384,3.1466696 11.68,2.56 C10.6399948,1.9466636 9.520006,1.64 8.32,1.64 C7.119994,1.64 6.0000052,1.9466636 4.96,2.56 C3.9466616,3.1466696 3.1466696,3.9466616 2.56,4.96 C1.9466636,6.0000052 1.64,7.119994 1.64,8.32 C1.64,9.520006 1.9466636,10.6399948 2.56,11.68 C3.1466696,12.6933384 3.9466616,13.4933304 4.96,14.08 C6.0000052,14.6933364 7.119994,15 8.32,15 Z" id="Combined-Shape"></path>
                <path d="M8.32,4.14 C9.0800038,4.14 9.7799968,4.3266648 10.42,4.7 C11.0600032,5.0733352 11.5666648,5.5799968 11.94,6.22 C12.3133352,6.8600032 12.5,7.5599962 12.5,8.32 C12.5,9.0800038 12.3133352,9.7799968 11.94,10.42 C11.5666648,11.0600032 11.0600032,11.5666648 10.42,11.94 C9.7799968,12.3133352 9.0800038,12.5 8.32,12.5 C7.5599962,12.5 6.8600032,12.3133352 6.22,11.94 C5.5799968,11.5666648 5.0733352,11.0600032 4.7,10.42 C4.3266648,9.7799968 4.14,9.0800038 4.14,8.32 C4.14,7.5599962 4.3266648,6.8600032 4.7,6.22 C5.0733352,5.5799968 5.5799968,5.0733352 6.22,4.7 C6.8600032,4.3266648 7.5599962,4.14 8.32,4.14 Z" id="Path"></path>
            </g>
            <g id="radio-disabled" transform="translate(0.000000, 40.000000)" fill="#9B9B9B">
                <path d="M8.32,0 C9.8400076,0 11.2466602,0.3799962 12.54,1.14 C13.7933396,1.8600036 14.7799964,2.8466604 15.5,4.1 C16.2600038,5.3933398 16.64,6.7999924 16.64,8.32 C16.64,9.8400076 16.2600038,11.2466602 15.5,12.54 C14.7799964,13.7933396 13.7933396,14.7799964 12.54,15.5 C11.2466602,16.2600038 9.8400076,16.64 8.32,16.64 C6.7999924,16.64 5.3933398,16.2600038 4.1,15.5 C2.8466604,14.766663 1.8600036,13.7733396 1.14,12.52 C0.3799962,11.2266602 0,9.8266742 0,8.32 C0,6.8133258 0.3799962,5.4133398 1.14,4.12 C1.873337,2.8666604 2.8666604,1.873337 4.12,1.14 C5.4133398,0.3799962 6.8133258,0 8.32,0 Z M8.32,15 C9.520006,15 10.6399948,14.6933364 11.68,14.08 C12.6933384,13.4933304 13.4933304,12.6933384 14.08,11.68 C14.6933364,10.6399948 15,9.520006 15,8.32 C15,7.119994 14.6933364,6.0000052 14.08,4.96 C13.4933304,3.9466616 12.6933384,3.1466696 11.68,2.56 C10.6399948,1.9466636 9.520006,1.64 8.32,1.64 C7.119994,1.64 6.0000052,1.9466636 4.96,2.56 C3.9466616,3.1466696 3.1466696,3.9466616 2.56,4.96 C1.9466636,6.0000052 1.64,7.119994 1.64,8.32 C1.64,9.520006 1.9466636,10.6399948 2.56,11.68 C3.1466696,12.6933384 3.9466616,13.4933304 4.96,14.08 C6.0000052,14.6933364 7.119994,15 8.32,15 Z" id="Combined-Shape"></path>
            </g>
            <g id="radio-checked" transform="translate(0.000000, 20.000000)" fill="#000000">
                <path d="M8.32,0 C9.8400076,0 11.2466602,0.3799962 12.54,1.14 C13.7933396,1.8600036 14.7799964,2.8466604 15.5,4.1 C16.2600038,5.3933398 16.64,6.7999924 16.64,8.32 C16.64,9.8400076 16.2600038,11.2466602 15.5,12.54 C14.7799964,13.7933396 13.7933396,14.7799964 12.54,15.5 C11.2466602,16.2600038 9.8400076,16.64 8.32,16.64 C6.7999924,16.64 5.3933398,16.2600038 4.1,15.5 C2.8466604,14.766663 1.8600036,13.7733396 1.14,12.52 C0.3799962,11.2266602 0,9.8266742 0,8.32 C0,6.8133258 0.3799962,5.4133398 1.14,4.12 C1.873337,2.8666604 2.8666604,1.873337 4.12,1.14 C5.4133398,0.3799962 6.8133258,0 8.32,0 Z M8.32,15 C9.520006,15 10.6399948,14.6933364 11.68,14.08 C12.6933384,13.4933304 13.4933304,12.6933384 14.08,11.68 C14.6933364,10.6399948 15,9.520006 15,8.32 C15,7.119994 14.6933364,6.0000052 14.08,4.96 C13.4933304,3.9466616 12.6933384,3.1466696 11.68,2.56 C10.6399948,1.9466636 9.520006,1.64 8.32,1.64 C7.119994,1.64 6.0000052,1.9466636 4.96,2.56 C3.9466616,3.1466696 3.1466696,3.9466616 2.56,4.96 C1.9466636,6.0000052 1.64,7.119994 1.64,8.32 C1.64,9.520006 1.9466636,10.6399948 2.56,11.68 C3.1466696,12.6933384 3.9466616,13.4933304 4.96,14.08 C6.0000052,14.6933364 7.119994,15 8.32,15 Z" id="Combined-Shape"></path>
                <path d="M8.32,4.14 C9.0800038,4.14 9.7799968,4.3266648 10.42,4.7 C11.0600032,5.0733352 11.5666648,5.5799968 11.94,6.22 C12.3133352,6.8600032 12.5,7.5599962 12.5,8.32 C12.5,9.0800038 12.3133352,9.7799968 11.94,10.42 C11.5666648,11.0600032 11.0600032,11.5666648 10.42,11.94 C9.7799968,12.3133352 9.0800038,12.5 8.32,12.5 C7.5599962,12.5 6.8600032,12.3133352 6.22,11.94 C5.5799968,11.5666648 5.0733352,11.0600032 4.7,10.42 C4.3266648,9.7799968 4.14,9.0800038 4.14,8.32 C4.14,7.5599962 4.3266648,6.8600032 4.7,6.22 C5.0733352,5.5799968 5.5799968,5.0733352 6.22,4.7 C6.8600032,4.3266648 7.5599962,4.14 8.32,4.14 Z" id="Path"></path>
            </g>
            <g id="radio" fill="#000000">
                <path d="M8.32,0 C9.8400076,0 11.2466602,0.3799962 12.54,1.14 C13.7933396,1.8600036 14.7799964,2.8466604 15.5,4.1 C16.2600038,5.3933398 16.64,6.7999924 16.64,8.32 C16.64,9.8400076 16.2600038,11.2466602 15.5,12.54 C14.7799964,13.7933396 13.7933396,14.7799964 12.54,15.5 C11.2466602,16.2600038 9.8400076,16.64 8.32,16.64 C6.7999924,16.64 5.3933398,16.2600038 4.1,15.5 C2.8466604,14.766663 1.8600036,13.7733396 1.14,12.52 C0.3799962,11.2266602 0,9.8266742 0,8.32 C0,6.8133258 0.3799962,5.4133398 1.14,4.12 C1.873337,2.8666604 2.8666604,1.873337 4.12,1.14 C5.4133398,0.3799962 6.8133258,0 8.32,0 Z M8.32,15 C9.520006,15 10.6399948,14.6933364 11.68,14.08 C12.6933384,13.4933304 13.4933304,12.6933384 14.08,11.68 C14.6933364,10.6399948 15,9.520006 15,8.32 C15,7.119994 14.6933364,6.0000052 14.08,4.96 C13.4933304,3.9466616 12.6933384,3.1466696 11.68,2.56 C10.6399948,1.9466636 9.520006,1.64 8.32,1.64 C7.119994,1.64 6.0000052,1.9466636 4.96,2.56 C3.9466616,3.1466696 3.1466696,3.9466616 2.56,4.96 C1.9466636,6.0000052 1.64,7.119994 1.64,8.32 C1.64,9.520006 1.9466636,10.6399948 2.56,11.68 C3.1466696,12.6933384 3.9466616,13.4933304 4.96,14.08 C6.0000052,14.6933364 7.119994,15 8.32,15 Z" id="Combined-Shape"></path>
            </g>
        </g>
    </g>
</svg>