<svg xmlns="http://www.w3.org/2000/svg" viewBox="0 0 3997.47 4000"><title>Asset 1</title><g id="Layer_2" data-name="Layer 2"><g id="Layer_1-2" data-name="Layer 1"><path d="M3997,880V0H0V880H2.53V3121H0v879H3997V3121h.47V880ZM2182,2383v-49.2h135.3V2383Zm135.3,24.6v49.2H2182v-49.2Zm-135.3-98.4V2260h135.3v49.2ZM2022.37,1833l286.31-232.12,219.21,642ZM1477,2242.8l219.21-642L1982.55,1833Zm343.4,17.22v196.79h-135.3V2260Zm-332.77,111.21L1635.93,2260v196.79H1373.54Zm-114.32,61h-.61V2284.68l110.61,65Zm342.81-851.29h572.63l-286.31,232.12ZM2123,2260l-111.55,83.66L1899.9,2260Zm-253.37,0,131.2,98.4,131.2,98.4H1869.62Zm496.91,0,148.28,111.21,114.12,85.59H2366.53Zm152.6,89.7,110.61-65v147.53h-.61Z" fill="#ccc"/></g></g></svg>